<svg width="38" height="51" viewBox="0 0 38 51" fill="none" xmlns="http://www.w3.org/2000/svg">
<path d="M17.7658 18.5C17.7658 18.96 17.9486 19.4011 18.2738 19.7264C18.5991 20.0516 19.0402 20.2344 19.5002 20.2344C19.9602 20.2344 20.4013 20.0516 20.7266 19.7264C21.0519 19.4011 21.2346 18.96 21.2346 18.5C21.2346 18.04 21.0519 17.5989 20.7266 17.2736C20.4013 16.9484 19.9602 16.7656 19.5002 16.7656C19.0402 16.7656 18.5991 16.9484 18.2738 17.2736C17.9486 17.5989 17.7658 18.04 17.7658 18.5ZM24.9924 18.5C24.9924 18.96 25.1751 19.4011 25.5004 19.7264C25.8256 20.0516 26.2668 20.2344 26.7268 20.2344C27.1868 20.2344 27.6279 20.0516 27.9532 19.7264C28.2784 19.4011 28.4611 18.96 28.4611 18.5C28.4611 18.04 28.2784 17.5989 27.9532 17.2736C27.6279 16.9484 27.1868 16.7656 26.7268 16.7656C26.2668 16.7656 25.8256 16.9484 25.5004 17.2736C25.1751 17.5989 24.9924 18.04 24.9924 18.5ZM10.5393 18.5C10.5393 18.96 10.722 19.4011 11.0473 19.7264C11.3725 20.0516 11.8137 20.2344 12.2736 20.2344C12.7336 20.2344 13.1748 20.0516 13.5 19.7264C13.8253 19.4011 14.008 18.96 14.008 18.5C14.008 18.04 13.8253 17.5989 13.5 17.2736C13.1748 16.9484 12.7336 16.7656 12.2736 16.7656C11.8137 16.7656 11.3725 16.9484 11.0473 17.2736C10.722 17.5989 10.5393 18.04 10.5393 18.5ZM34.4303 12.2273C33.6137 10.287 32.443 8.54541 30.9507 7.04951C29.4688 5.56227 27.7097 4.3801 25.7729 3.56992C23.7856 2.73525 21.6754 2.3125 19.5002 2.3125H19.4279C17.2383 2.32334 15.1173 2.75693 13.1228 3.60967C11.2025 4.42815 9.45985 5.61243 7.9919 7.09648C6.51407 8.58877 5.35421 10.3231 4.55206 12.2563C3.72101 14.258 3.30187 16.3862 3.3127 18.5759C3.32497 21.0852 3.91862 23.5575 5.04708 25.7988V31.291C5.04708 31.7318 5.22219 32.1546 5.5339 32.4663C5.84561 32.778 6.26837 32.9531 6.70919 32.9531H12.205C14.4463 34.0816 16.9186 34.6752 19.4279 34.6875H19.5038C21.6682 34.6875 23.7675 34.2684 25.744 33.4481C27.671 32.6476 29.4236 31.4792 30.9037 30.0083C32.396 28.5305 33.5703 26.8033 34.3905 24.8774C35.2433 22.8829 35.6769 20.7619 35.6877 18.5723C35.6985 16.3718 35.2722 14.2363 34.4303 12.2273ZM28.9706 28.0535C26.4377 30.5611 23.0774 31.9414 19.5002 31.9414H19.4388C17.26 31.9306 15.0956 31.3886 13.1842 30.3696L12.8807 30.207H7.79317V25.1195L7.63058 24.816C6.61163 22.9046 6.06964 20.7402 6.0588 18.5614C6.04435 14.959 7.42101 11.577 9.94669 9.02959C12.4688 6.48223 15.84 5.07305 19.4424 5.05859H19.5038C21.3105 5.05859 23.0629 5.40908 24.7142 6.10283C26.3257 6.77852 27.771 7.75049 29.014 8.99346C30.2533 10.2328 31.2289 11.6817 31.9046 13.2933C32.6056 14.9626 32.9561 16.7331 32.9488 18.5614C32.9272 22.1603 31.5144 25.5314 28.9706 28.0535Z" fill="#D9D9D9"/>
<path d="M4.60156 41.68H5.40156C5.40156 44.29 4.50156 46.69 1.32156 48.29L0.851563 47.65C3.64156 46.25 4.60156 44.24 4.60156 41.77V41.68ZM1.34156 41.68H5.10156V42.35H1.34156V41.68ZM4.55156 43.92V44.55L1.02156 44.88L0.881563 44.16L4.55156 43.92ZM7.45156 40.74H8.28156V49.78H7.45156V40.74ZM5.38156 44.36H7.85156V45.05H5.38156V44.36ZM11.6208 46.19H12.4508V49.85H11.6208V46.19ZM14.8308 46.19H15.6608V49.85H14.8308V46.19ZM9.54078 45.97H17.7408V46.65H9.54078V45.97ZM10.5808 41.23H16.6808V44.75H10.5808V41.23ZM15.8708 41.89H11.4008V44.09H15.8708V41.89ZM24.82 40.74H25.65V49.78H24.82V40.74ZM18.82 41.62H19.64V47.22H18.82V41.62ZM18.82 46.73H19.56C20.93 46.73 22.36 46.63 23.89 46.31L23.99 47.02C22.42 47.34 20.99 47.45 19.56 47.45H18.82V46.73ZM27.5192 46.92H28.2392C29.9292 46.92 31.1092 46.87 32.4992 46.64L32.5792 47.31C31.1592 47.56 29.9592 47.61 28.2392 47.61H27.5192V46.92ZM27.5192 41.56H31.8992V42.25H28.3392V47.16H27.5192V41.56ZM28.1392 44.09H31.5692V44.76H28.1392V44.09ZM33.5292 40.74H34.3592V49.78H33.5292V40.74Z" fill="#D9D9D9"/>
</svg>
