<svg width="7" height="14" viewBox="0 0 7 14" fill="none" xmlns="http://www.w3.org/2000/svg">
<path d="M5.6772 13.4168C5.54026 13.4172 5.40495 13.387 5.28122 13.3283C5.15749 13.2696 5.04848 13.1839 4.9622 13.0776L0.534703 7.57759C0.399878 7.41357 0.326172 7.20783 0.326172 6.99551C0.326172 6.78318 0.399878 6.57744 0.534703 6.41342L5.11804 0.913423C5.27363 0.726225 5.49721 0.608502 5.7396 0.586154C5.982 0.563806 6.22334 0.638663 6.41054 0.794257C6.59773 0.94985 6.71546 1.17344 6.7378 1.41583C6.76015 1.65822 6.6853 1.89956 6.5297 2.08676L2.4322 7.00009L6.3922 11.9134C6.50429 12.048 6.5755 12.2118 6.59739 12.3856C6.61928 12.5593 6.59094 12.7357 6.51572 12.8939C6.4405 13.052 6.32155 13.1853 6.17295 13.278C6.02435 13.3706 5.85232 13.4188 5.6772 13.4168Z" fill="#534340"/>
</svg>
