<svg width="43" height="53" viewBox="0 0 43 53" fill="none" xmlns="http://www.w3.org/2000/svg">
<path d="M20.5 31.6042L15.375 29.0417M15.375 29.0417L5.125 34.1667V11.9584L15.375 6.83337M15.375 29.0417V6.83337M15.375 6.83337L25.625 11.9584M25.625 11.9584L35.875 6.83337V19.6459M25.625 11.9584V21.3542M32.4583 30.75V30.7671M36.0817 34.3734C36.7986 33.6567 37.2869 32.7435 37.4847 31.7494C37.6826 30.7552 37.5812 29.7246 37.1934 28.7881C36.8055 27.8515 36.1486 27.051 35.3058 26.4878C34.463 25.9246 33.472 25.6239 32.4583 25.6239C31.4446 25.6239 30.4537 25.9246 29.6109 26.4878C28.768 27.051 28.1112 27.8515 27.7233 28.7881C27.3354 29.7246 27.234 30.7552 27.4319 31.7494C27.6298 32.7435 28.1181 33.6567 28.835 34.3734C29.549 35.0892 30.7568 36.1586 32.4583 37.5834C34.2538 36.063 35.4633 34.9935 36.0817 34.3734Z" stroke="#D9D9D9" stroke-width="3" stroke-linecap="round" stroke-linejoin="round"/>
<path d="M2.04852 43.78H5.49852V49.36H2.04852V43.78ZM4.71852 44.44H2.82852V48.7H4.71852V44.44ZM8.60852 42.74H9.40852V51.78H8.60852V42.74ZM5.07852 46.14H7.15852V46.83H5.07852V46.14ZM6.81852 42.93H7.60852V51.33H6.81852V42.93ZM16.9977 42.75H17.8377V49.35H16.9977V42.75ZM12.0277 50.9H18.1077V51.58H12.0277V50.9ZM12.0277 48.67H12.8477V51.13H12.0277V48.67ZM12.9877 43.37C14.3377 43.37 15.3377 44.29 15.3377 45.6C15.3377 46.9 14.3377 47.83 12.9877 47.83C11.6377 47.83 10.6277 46.9 10.6277 45.6C10.6277 44.29 11.6377 43.37 12.9877 43.37ZM12.9877 44.09C12.1077 44.09 11.4377 44.71 11.4377 45.6C11.4377 46.48 12.1077 47.1 12.9877 47.1C13.8677 47.1 14.5377 46.48 14.5377 45.6C14.5377 44.71 13.8677 44.09 12.9877 44.09ZM19.6923 47.9318C19.6923 47.0369 19.8083 46.2143 20.0403 45.4638C20.2747 44.7109 20.6085 44.0185 21.0417 43.3864H21.7804C21.6099 43.6207 21.4501 43.9096 21.301 44.2528C21.1542 44.5937 21.0252 44.969 20.9139 45.3786C20.8026 45.7857 20.715 46.2071 20.6511 46.6428C20.5895 47.0784 20.5588 47.508 20.5588 47.9318C20.5588 48.4953 20.6132 49.067 20.7221 49.647C20.831 50.227 20.9778 50.7656 21.1625 51.2628C21.3471 51.7599 21.5531 52.1648 21.7804 52.4773H21.0417C20.6085 51.8452 20.2747 51.1539 20.0403 50.4034C19.8083 49.6506 19.6923 48.8267 19.6923 47.9318ZM24.64 44.03H25.31V45.5C25.31 47.41 24.16 49.33 22.72 50.04L22.24 49.38C23.55 48.76 24.64 47.06 24.64 45.5V44.03ZM24.8 44.03H25.47V45.5C25.47 47.03 26.56 48.59 27.89 49.16L27.42 49.82C25.96 49.14 24.8 47.38 24.8 45.5V44.03ZM22.54 43.66H27.59V44.36H22.54V43.66ZM28.81 42.74H29.64V51.78H28.81V42.74ZM31.9792 46.96H38.1892V47.64H31.9792V46.96ZM30.9492 49.95H39.1392V50.65H30.9492V49.95ZM34.6092 47.25H35.4392V50.23H34.6092V47.25ZM31.9792 43.46H38.0992V44.14H32.8092V47.26H31.9792V43.46ZM41.7053 47.9318C41.7053 48.8267 41.5881 49.6506 41.3537 50.4034C41.1217 51.1539 40.7891 51.8452 40.3558 52.4773H39.6172C39.7876 52.2429 39.9463 51.9541 40.093 51.6108C40.2422 51.2699 40.3724 50.8958 40.4837 50.4886C40.5949 50.0791 40.6813 49.6565 40.7429 49.2209C40.8068 48.7829 40.8388 48.3532 40.8388 47.9318C40.8388 47.3684 40.7843 46.7966 40.6754 46.2166C40.5665 45.6366 40.4197 45.098 40.2351 44.6009C40.0504 44.1037 39.8445 43.6989 39.6172 43.3864H40.3558C40.7891 44.0185 41.1217 44.7109 41.3537 45.4638C41.5881 46.2143 41.7053 47.0369 41.7053 47.9318Z" fill="#D9D9D9"/>
</svg>
