<svg width="45" height="53" viewBox="0 0 45 53" fill="none" xmlns="http://www.w3.org/2000/svg">
<path d="M29.4688 20.5C30.4882 20.5 31.4658 20.905 32.1867 21.6258C32.9075 22.3467 33.3125 23.3243 33.3125 24.3438V25.625C33.3125 30.6757 28.5462 35.875 20.5 35.875C12.4537 35.875 7.6875 30.6757 7.6875 25.625V24.3438C7.6875 23.3243 8.09247 22.3467 8.81331 21.6258C9.53415 20.905 10.5118 20.5 11.5312 20.5H29.4688ZM29.4688 23.0625H11.5312C11.1914 23.0625 10.8656 23.1975 10.6253 23.4378C10.385 23.678 10.25 24.0039 10.25 24.3438V25.625C10.25 29.3099 13.9195 33.3125 20.5 33.3125C27.0805 33.3125 30.75 29.3099 30.75 25.625V24.3438C30.75 24.0039 30.615 23.678 30.3747 23.4378C30.1345 23.1975 29.8086 23.0625 29.4688 23.0625ZM20.5 3.84375C22.3689 3.84375 24.1613 4.58619 25.4829 5.90773C26.8044 7.22928 27.5469 9.02168 27.5469 10.8906C27.5469 12.7596 26.8044 14.552 25.4829 15.8735C24.1613 17.1951 22.3689 17.9375 20.5 17.9375C18.6311 17.9375 16.8387 17.1951 15.5171 15.8735C14.1956 14.552 13.4531 12.7596 13.4531 10.8906C13.4531 9.02168 14.1956 7.22928 15.5171 5.90773C16.8387 4.58619 18.6311 3.84375 20.5 3.84375ZM20.5 6.40625C19.3107 6.40625 18.1701 6.87871 17.3291 7.71969C16.4881 8.56068 16.0156 9.70129 16.0156 10.8906C16.0156 12.08 16.4881 13.2206 17.3291 14.0616C18.1701 14.9025 19.3107 15.375 20.5 15.375C21.6893 15.375 22.8299 14.9025 23.6709 14.0616C24.5119 13.2206 24.9844 12.08 24.9844 10.8906C24.9844 9.70129 24.5119 8.56068 23.6709 7.71969C22.8299 6.87871 21.6893 6.40625 20.5 6.40625Z" fill="#D9D9D9"/>
<path d="M1.85195 43.64H6.00195V49.49H1.85195V43.64ZM5.19195 44.31H2.66195V48.82H5.19195V44.31ZM7.61195 42.74H8.45195V51.78H7.61195V42.74ZM8.25195 46.35H9.93195V47.05H8.25195V46.35ZM16.7612 42.73H17.5912V51.79H16.7612V42.73ZM12.8212 43.43C14.1612 43.43 15.1212 44.66 15.1212 46.58C15.1212 48.51 14.1612 49.74 12.8212 49.74C11.4912 49.74 10.5312 48.51 10.5312 46.58C10.5312 44.66 11.4912 43.43 12.8212 43.43ZM12.8212 44.18C11.9412 44.18 11.3212 45.12 11.3212 46.58C11.3212 48.05 11.9412 49.01 12.8212 49.01C13.7112 49.01 14.3212 48.05 14.3212 46.58C14.3212 45.12 13.7112 44.18 12.8212 44.18ZM25.8204 42.74H26.6204V51.78H25.8204V42.74ZM22.8404 46.18H24.3404V46.91H22.8404V46.18ZM24.0704 42.96H24.8604V51.31H24.0704V42.96ZM18.9804 43.88H23.1104V44.56H18.9804V43.88ZM18.9004 49.56L18.8004 48.86C19.9704 48.86 21.9304 48.82 23.3004 48.64L23.3604 49.25C21.9504 49.52 20.0604 49.56 18.9004 49.56ZM19.7204 44.32H20.4804V49.05H19.7204V44.32ZM21.6004 44.32H22.3604V49.05H21.6004V44.32ZM34.1596 42.73H34.9896V51.79H34.1596V42.73ZM30.2196 43.43C31.5596 43.43 32.5196 44.66 32.5196 46.58C32.5196 48.51 31.5596 49.74 30.2196 49.74C28.8896 49.74 27.9296 48.51 27.9296 46.58C27.9296 44.66 28.8896 43.43 30.2196 43.43ZM30.2196 44.18C29.3396 44.18 28.7196 45.12 28.7196 46.58C28.7196 48.05 29.3396 49.01 30.2196 49.01C31.1096 49.01 31.7196 48.05 31.7196 46.58C31.7196 45.12 31.1096 44.18 30.2196 44.18ZM38.6888 44.03H39.3588V45.5C39.3588 47.41 38.2088 49.33 36.7688 50.04L36.2888 49.38C37.5988 48.76 38.6888 47.06 38.6888 45.5V44.03ZM38.8488 44.03H39.5188V45.5C39.5188 47.03 40.6088 48.59 41.9388 49.16L41.4688 49.82C40.0088 49.14 38.8488 47.38 38.8488 45.5V44.03ZM36.5888 43.66H41.6388V44.36H36.5888V43.66ZM42.8588 42.74H43.6888V51.78H42.8588V42.74Z" fill="#D9D9D9"/>
</svg>
