<svg width="34" height="48" viewBox="0 0 34 48" fill="none" xmlns="http://www.w3.org/2000/svg">
<path d="M2.70117 44.98H10.8912V45.67H2.70117V44.98ZM6.36117 43.04H7.19117V45.27H6.36117V43.04ZM3.69117 38.41H9.88117V41.15H4.54117V42.96H3.72117V40.48H9.06117V39.08H3.69117V38.41ZM3.72117 42.61H10.0912V43.29H3.72117V42.61ZM12.4304 42.07H18.6404V42.75H12.4304V42.07ZM11.4004 44.87H19.5904V45.56H11.4004V44.87ZM12.4304 38.57H18.5504V39.26H13.2604V42.37H12.4304V38.57ZM26.9196 37.75H27.7096V42.66H26.9196V37.75ZM25.4996 39.82H27.1996V40.5H25.4996V39.82ZM24.9796 37.92H25.7696V42.6H24.9796V37.92ZM20.4996 38.38H23.9896V42.19H20.4996V38.38ZM23.2096 39.03H21.2696V41.53H23.2096V39.03ZM21.7896 43.08H22.6096V44.15H26.9096V43.08H27.7096V46.66H21.7896V43.08ZM22.6096 44.81V45.98H26.9096V44.81H22.6096Z" fill="#D9D9D9"/>
<g clip-path="url(#clip0_514_5952)">
<path d="M15.5701 26.4489H27.9983M15.5701 26.4489C15.5701 26.7986 15.5012 27.145 15.3673 27.4681C15.2335 27.7913 15.0373 28.0849 14.7899 28.3322C14.5426 28.5796 14.249 28.7757 13.9259 28.9096C13.6027 29.0435 13.2564 29.1123 12.9066 29.1123C12.5568 29.1123 12.2105 29.0435 11.8873 28.9096C11.5642 28.7757 11.2706 28.5796 11.0232 28.3322C10.7759 28.0849 10.5797 27.7913 10.4459 27.4681C10.312 27.145 10.2431 26.7986 10.2431 26.4489C10.2431 26.0991 10.312 25.7528 10.4459 25.4296C10.5797 25.1065 10.7759 24.8128 11.0232 24.5655C11.2706 24.3182 11.5642 24.122 11.8873 23.9882C12.2105 23.8543 12.5568 23.7854 12.9066 23.7854C13.2564 23.7854 13.6027 23.8543 13.9259 23.9882C14.249 24.122 14.5426 24.3182 14.7899 24.5655C15.0373 24.8128 15.2335 25.1065 15.3673 25.4296C15.5012 25.7528 15.5701 26.0991 15.5701 26.4489ZM27.9983 26.4489L24.4476 22.8982M27.9983 26.4489L24.4476 29.9995M8.46875 7.80653C8.46875 8.51293 8.74936 9.19039 9.24886 9.68989C9.74836 10.1894 10.4258 10.47 11.1322 10.47C11.8386 10.47 12.5161 10.1894 13.0156 9.68989C13.5151 9.19039 13.7957 8.51293 13.7957 7.80653C13.7957 7.10014 13.5151 6.42267 13.0156 5.92318C12.5161 5.42368 11.8386 5.14307 11.1322 5.14307C10.4258 5.14307 9.74836 5.42368 9.24886 5.92318C8.74936 6.42267 8.46875 7.10014 8.46875 7.80653ZM15.5701 16.6841C15.5701 17.3905 15.8507 18.068 16.3502 18.5675C16.8497 19.067 17.5271 19.3476 18.2335 19.3476C18.9399 19.3476 19.6174 19.067 20.1169 18.5675C20.6164 18.068 20.897 17.3905 20.897 16.6841C20.897 15.9777 20.6164 15.3003 20.1169 14.8008C19.6174 14.3013 18.9399 14.0206 18.2335 14.0206C17.5271 14.0206 16.8497 14.3013 16.3502 14.8008C15.8507 15.3003 15.5701 15.9777 15.5701 16.6841Z" stroke="#D9D9D9" stroke-width="2.5" stroke-linecap="round" stroke-linejoin="round"/>
<path d="M15.5708 16.6842H8.02592C6.74776 16.7095 5.53049 17.235 4.6355 18.1479C3.74052 19.0608 3.2392 20.2882 3.2392 21.5666C3.2392 22.845 3.74052 24.0724 4.6355 24.9853C5.53049 25.8982 6.74776 26.4237 8.02592 26.449H10.2439M20.8977 16.6842H23.5612C24.7384 16.6842 25.8675 16.2166 26.6999 15.3841C27.5323 14.5517 28 13.4227 28 12.2454C28 11.0682 27.5323 9.93917 26.6999 9.10673C25.8675 8.2743 24.7384 7.80664 23.5612 7.80664H13.7926M8.46951 7.80664H3.14258" stroke="#D9D9D9" stroke-width="2.5" stroke-linecap="round" stroke-linejoin="round"/>
</g>
<defs>
<clipPath id="clip0_514_5952">
<rect width="32" height="32" fill="white" transform="translate(2 4)"/>
</clipPath>
</defs>
</svg>
